<mxfile host="Electron" agent="Mozilla/5.0 (Macintosh; Intel Mac OS X 10_15_7) AppleWebKit/537.36 (KHTML, like Gecko) draw.io/27.0.9 Chrome/134.0.6998.205 Electron/35.4.0 Safari/537.36" version="27.0.9">
  <diagram name="Page-1" id="90SzeReyr7TxUAfX1vWO">
    <mxGraphModel dx="1092" dy="599" grid="1" gridSize="10" guides="1" tooltips="1" connect="1" arrows="1" fold="1" page="1" pageScale="1" pageWidth="1100" pageHeight="850" math="0" shadow="0">
      <root>
        <mxCell id="0" />
        <mxCell id="1" parent="0" />
        <mxCell id="MiGzIa-5hMcqMzXC5Xjc-1" value="GUI A" style="rounded=1;whiteSpace=wrap;html=1;sketch=0;container=1;recursiveResize=0;verticalAlign=top;arcSize=6;fontStyle=1;autosize=0;points=[];absoluteArcSize=1;shadow=0;strokeColor=#001DBC;fillColor=#D4E4EF;fontColor=#ffffff;fontFamily=Helvetica;fontSize=11;gradientColor=#0050EF;" vertex="1" parent="1">
          <mxGeometry x="100" y="230" width="130" height="110" as="geometry">
            <mxRectangle x="-98" y="-1230" width="99" height="26" as="alternateBounds" />
          </mxGeometry>
        </mxCell>
        <mxCell id="MiGzIa-5hMcqMzXC5Xjc-2" value="#" style="rounded=1;whiteSpace=wrap;html=1;sketch=0;points=[[0,0.5,0,0,0],[1,0.5,0,0,0]];fillColor=#1ba1e2;fontColor=#ffffff;strokeColor=#006EAF;arcSize=50;fontFamily=Helvetica;fontSize=11;textOpacity=30;opacity=30;" vertex="1" parent="MiGzIa-5hMcqMzXC5Xjc-1">
          <mxGeometry x="110" y="70" width="35.25" height="25" as="geometry" />
        </mxCell>
        <mxCell id="MiGzIa-5hMcqMzXC5Xjc-3" value="edit" style="rounded=1;whiteSpace=wrap;html=1;sketch=0;points=[[0,0.5,0,0,0],[1,0.5,0,0,0]];fillColor=#1ba1e2;fontColor=#ffffff;strokeColor=#006EAF;arcSize=50;fontFamily=Helvetica;fontSize=11;rotation=-90;" vertex="1" parent="MiGzIa-5hMcqMzXC5Xjc-1">
          <mxGeometry x="82.38499999999999" y="-15.004999999999995" width="35.25" height="25" as="geometry" />
        </mxCell>
        <mxCell id="MiGzIa-5hMcqMzXC5Xjc-4" value="display" style="rounded=1;whiteSpace=wrap;html=1;sketch=0;points=[[0,0.5,0,0,0],[1,0.5,0,0,0]];arcSize=50;fontFamily=Helvetica;fontSize=11;rotation=-90;" vertex="1" parent="MiGzIa-5hMcqMzXC5Xjc-1">
          <mxGeometry x="12.375000000000004" y="-15.004999999999995" width="35.25" height="25" as="geometry" />
        </mxCell>
        <mxCell id="MiGzIa-5hMcqMzXC5Xjc-5" value="" style="rhombus;whiteSpace=wrap;html=1;rounded=1;fontStyle=1;glass=0;sketch=0;fontSize=12;points=[[0,0.5,0,0,0],[0.5,0,0,0,0],[0.5,1,0,0,0],[1,0.5,0,0,0]];shadow=1;fontFamily=Helvetica;fontColor=default;" vertex="1" parent="1">
          <mxGeometry x="30" y="80" width="40" height="40" as="geometry" />
        </mxCell>
        <mxCell id="MiGzIa-5hMcqMzXC5Xjc-6" value="#" style="rhombus;whiteSpace=wrap;html=1;rounded=1;fillColor=#0050ef;fontColor=#ffffff;strokeColor=#001DBC;fontStyle=1;glass=0;sketch=0;fontSize=12;points=[[0,0.5,0,0,0],[0.5,0,0,0,0],[0.5,1,0,0,0],[1,0.5,0,0,0]];shadow=1;fontFamily=Helvetica;opacity=30;textOpacity=30;" vertex="1" parent="1">
          <mxGeometry x="320" y="280" width="40" height="40" as="geometry" />
        </mxCell>
        <mxCell id="MiGzIa-5hMcqMzXC5Xjc-7" style="edgeStyle=orthogonalEdgeStyle;rounded=1;orthogonalLoop=1;jettySize=auto;html=1;exitX=1;exitY=0.5;exitDx=0;exitDy=0;exitPerimeter=0;entryX=0;entryY=0.5;entryDx=0;entryDy=0;entryPerimeter=0;curved=0;dashed=1;dashPattern=1 4;" edge="1" parent="1" source="MiGzIa-5hMcqMzXC5Xjc-2" target="MiGzIa-5hMcqMzXC5Xjc-6">
          <mxGeometry relative="1" as="geometry" />
        </mxCell>
      </root>
    </mxGraphModel>
  </diagram>
</mxfile>
